<?xml version="1.0" standalone="no"?>
<!DOCTYPE svg PUBLIC "-//W3C//DTD SVG 20010904//EN"
 "http://www.w3.org/TR/2001/REC-SVG-20010904/DTD/svg10.dtd">
<svg version="1.0" xmlns="http://www.w3.org/2000/svg"
 width="340.000000pt" height="340.000000pt" viewBox="0 0 340.000000 340.000000"
 preserveAspectRatio="xMidYMid meet">
<metadata>
Created by potrace 1.13, written by Peter Selinger 2001-2015
</metadata>
<g transform="translate(0.000000,340.000000) scale(0.100000,-0.100000)"
fill="#000000" stroke="none">
<path d="M1459 3349 c-27 -27 -93 -168 -150 -320 l-44 -116 -68 -26 -68 -27
-127 51 c-183 74 -291 109 -331 109 -33 -1 -50 -15 -183 -144 -139 -135 -148
-146 -148 -181 0 -41 46 -162 125 -330 l51 -110 -29 -66 -29 -66 -121 -48
c-171 -67 -288 -122 -314 -147 -23 -21 -23 -26 -23 -238 0 -196 2 -218 18
-233 26 -23 147 -77 297 -133 72 -26 135 -52 142 -58 6 -6 22 -37 36 -70 l24
-58 -58 -133 c-73 -170 -109 -274 -109 -318 0 -32 13 -48 151 -181 91 -87 160
-146 171 -146 32 0 184 54 328 118 l134 59 61 -24 c33 -14 65 -30 71 -36 6 -7
28 -55 49 -107 59 -146 130 -293 154 -318 21 -21 27 -22 240 -22 272 0 239
-26 362 284 l67 169 68 28 c65 25 71 26 104 12 200 -85 395 -153 439 -153 8 0
81 66 163 147 137 136 148 150 148 184 0 48 -24 114 -104 292 l-67 148 27 69
c20 52 32 70 50 74 47 12 350 143 392 169 l42 27 0 224 c0 202 -2 224 -18 239
-25 22 -121 65 -287 127 -77 29 -145 56 -151 61 -7 5 -22 37 -34 69 l-23 60
58 137 c75 179 105 268 105 314 0 35 -9 46 -147 178 -137 132 -148 141 -185
141 -43 0 -168 -44 -337 -119 l-111 -50 -67 28 -68 27 -47 110 c-91 214 -123
279 -151 311 l-29 33 -214 0 c-205 0 -215 -1 -235 -21z m402 -1095 c237 -70
407 -276 426 -516 28 -366 -323 -676 -688 -608 -234 44 -426 228 -474 455 -18
88 -19 142 0 227 58 277 325 480 606 463 42 -3 100 -12 130 -21z"/>
</g>
</svg>
